PathFileType	3	(X/Y/Z)	RCH0000002 BBF 12.c3d
DataRate	CameraRate	NumFrames	NumMarkers	Units	OrigDataRate	OrigDataStartFrame	OrigNumFrames
100.0	100.0	13	23	mm	100.0	515	406
Frame#	Time	T10			RPSI			LPAT			LANK			LMED			LTOE			RPAT			RKNE			RANK			RMED			RTOE			LKNE			RHEE			RASI			MAN			LHEE			LASI			T2			LPSI			RTHI			LTHI			RTIB			LTIB			
		X1	Y1	Z1	X2	Y2	Z2	X3	Y3	Z3	X4	Y4	Z4	X5	Y5	Z5	X6	Y6	Z6	X7	Y7	Z7	X8	Y8	Z8	X9	Y9	Z9	X10	Y10	Z10	X11	Y11	Z11	X12	Y12	Z12	X13	Y13	Z13	X14	Y14	Z14	X15	Y15	Z15	X16	Y16	Z16	X17	Y17	Z17	X18	Y18	Z18	X19	Y19	Z19	X20	Y20	Z20	X21	Y21	Z21	X22	Y22	Z22	X23	Y23	Z23	

515	5.140	1473.29623	-54.15301	802.10034	1460.13944	-96.70887	711.32084	1514.43147	1.13387	380.37013	1391.94988	50.68488	77.54523	1401.19714	-17.66298	97.52160	1444.06259	18.20093	71.90237	1652.46113	-92.71792	390.82983	1600.53468	-143.73075	356.67238	1443.20208	-163.54714	141.08488	1441.16487	-93.68911	149.95999	1479.81667	-131.09536	110.41382	1463.79478	56.88160	346.06412	1418.00244	-127.78126	186.90583	1575.13131	-127.49355	650.34126	1599.59362	-17.52053	959.59894	1357.38145	9.77118	112.67342	1540.85970	45.62884	653.15050	1468.45171	-38.09094	992.48848	1448.01334	-27.60907	713.10577	1592.81804	-212.66778	468.08031	1471.10119	126.77641	470.86864	1532.81077	-217.42272	274.64129	1423.96598	118.54098	232.06242	
516	5.150	1481.63113	-54.13985	802.12786	1468.95082	-96.94321	710.40224	1517.36030	2.94665	379.88277	1392.48653	51.47474	78.02666	1402.17552	-16.74368	98.34926	1444.70080	19.10308	72.03468	1670.40003	-90.68631	396.38679	1619.74780	-141.32767	359.94916	1471.21239	-159.55813	138.55497	1468.80246	-89.64217	147.40502	1509.36604	-126.99970	109.84580	1465.67866	58.32077	346.52879	1443.97388	-123.88810	183.27792	1584.67357	-125.76970	650.19217	1609.38185	-17.62565	958.93135	1358.35549	10.61711	113.64678	1547.84907	46.84163	653.49466	1478.39508	-38.33056	992.69773	1455.89052	-28.16110	712.66953	1607.84121	-211.06222	470.50091	1474.64727	127.83127	471.40682	1555.24523	-214.39838	275.03975	1424.79050	119.78037	232.47101	
517	5.160	1489.99723	-54.26644	801.91824	1477.83729	-97.22326	709.11243	1520.56139	4.77098	379.32567	1393.10411	52.41992	78.49711	1403.15111	-15.65446	99.17804	1445.36332	20.10699	72.14376	1687.76508	-88.37881	401.67504	1638.58250	-138.66417	363.00636	1499.68917	-155.51132	135.80978	1496.73241	-85.55231	144.59356	1539.16163	-122.72453	109.05829	1467.88873	59.81628	346.96537	1470.34172	-120.03637	179.31056	1594.30866	-124.10972	649.76196	1619.23651	-17.81460	957.99917	1359.37447	11.68241	114.64252	1555.06752	47.98847	653.75307	1488.39147	-38.64415	992.66233	1463.89207	-28.75436	711.95073	1622.65934	-209.25299	472.56214	1478.60142	128.93412	471.88984	1577.85573	-211.21427	275.16546	1425.93832	121.13130	232.85906	
518	5.170	1498.43150	-54.53176	801.48278	1486.84314	-97.52880	707.47421	1524.06288	6.57914	378.69343	1393.77477	53.45306	78.97786	1404.13186	-14.46161	100.01117	1446.03947	21.17017	72.23654	1704.45925	-85.68594	406.55756	1656.95803	-135.67899	365.74951	1528.48571	-151.44840	132.86877	1524.76075	-81.48001	141.52950	1569.02388	-118.29652	108.04739	1470.45165	61.33421	347.36360	1496.96256	-116.30042	175.02055	1604.08081	-122.49648	649.06539	1629.16049	-18.10361	956.83580	1360.43069	12.87552	115.67869	1562.55493	49.08833	653.93105	1498.44270	-39.06300	992.39400	1472.06541	-29.36589	710.96311	1637.30398	-207.16669	474.20841	1482.99671	130.07923	472.29303	1600.58815	-207.85144	274.99796	1427.37558	122.53966	233.23398	
519	5.180	1506.97270	-54.92510	800.82955	1496.01349	-97.83717	705.51539	1527.91933	8.34799	377.97311	1394.47982	54.51020	79.49510	1405.13366	-13.23061	100.85506	1446.72390	22.24923	72.32018	1720.39547	-82.50673	410.88586	1674.79576	-132.32047	368.07630	1557.41546	-147.40993	129.73456	1552.65781	-77.48701	138.20452	1598.73732	-113.74367	106.79547	1473.41663	62.83841	347.70382	1523.65638	-112.75467	170.41649	1614.03248	-120.91178	648.12195	1639.15731	-18.50621	955.47534	1361.53071	14.11017	116.77991	1570.34687	50.16035	654.02416	1508.54996	-39.61410	991.90348	1480.45592	-29.97086	709.71733	1651.81144	-204.73539	475.38780	1487.86538	131.25587	472.58612	1623.36618	-204.29233	274.50983	1429.09255	123.94957	233.60191	
520	5.190	1515.66037	-55.42658	799.96322	1505.39179	-98.12469	703.26909	1532.21141	10.06083	377.14277	1395.21397	55.53594	80.07866	1406.18133	-12.02067	101.71913	1447.41843	23.30297	72.40147	1735.50290	-78.75608	414.50893	1692.02443	-128.55124	369.88277	1586.24674	-143.43678	126.39997	1580.15894	-73.63510	134.60537	1628.04749	-109.09957	105.27778	1476.85610	64.29421	347.95542	1550.20374	-109.47031	165.50696	1624.20207	-119.33771	646.95476	1649.23079	-19.03225	953.95121	1362.69804	15.31267	117.97616	1578.47304	51.22291	654.01823	1518.71358	-40.31870	991.19977	1489.10447	-30.54378	708.22187	1666.22141	-201.90124	476.05533	1493.24008	132.44964	472.73392	1646.08827	-200.52275	273.67256	1431.10901	125.30893	233.96551	
521	5.200	1524.53322	-56.00806	798.88588	1515.01692	-98.36795	700.77442	1537.04278	11.70761	376.17078	1395.98899	56.48638	80.76052	1407.30985	-10.88109	102.61542	1448.13401	24.29442	72.48654	1749.73258	-74.37283	417.28572	1708.58499	-124.35290	371.07225	1614.70050	-139.57202	122.85722	1606.96790	-69.98505	130.72331	1656.66146	-104.40747	103.47116	1480.86375	65.67098	348.07622	1576.34559	-106.51217	160.31044	1634.62121	-117.75831	645.59028	1659.38442	-19.68683	952.29516	1363.97513	16.42618	119.30125	1586.95573	52.29236	653.89008	1528.93257	-41.19109	990.29020	1498.04492	-31.05945	706.48460	1680.57404	-198.62151	476.17747	1499.15480	133.64324	472.69699	1668.62564	-196.53472	272.46375	1433.47639	126.57338	234.32193	
522	5.210	1533.62710	-56.63424	797.59866	1524.91995	-98.54466	698.07758	1542.53420	13.28389	375.01626	1396.83669	57.33022	81.57333	1408.56560	-9.84931	103.55805	1448.89265	25.19189	72.58071	1763.06153	-69.32823	419.09987	1724.43413	-119.73074	371.56629	1642.45281	-135.86251	119.10779	1632.76409	-66.59531	126.56429	1684.25323	-99.72364	101.36333	1485.55017	66.94360	348.01301	1601.78705	-103.93580	154.86519	1645.31198	-116.16151	644.05880	1669.62056	-20.46952	950.53708	1365.42442	17.41229	120.79081	1595.80857	53.38160	653.60928	1539.20426	-42.23784	989.18125	1507.30168	-31.49359	704.51500	1694.90517	-194.87438	475.73714	1505.64525	134.81687	472.43266	1690.82218	-192.33012	270.87447	1436.27668	127.70877	234.66123	
523	5.220	1542.97255	-57.26404	796.10428	1535.12096	-98.63442	695.23298	1548.81543	14.78900	373.63124	1397.81113	58.04843	82.54886	1410.00750	-8.95037	104.56258	1449.72932	25.96946	72.68883	1775.49487	-63.63466	419.87484	1739.54569	-114.71808	371.31598	1669.14325	-132.35955	115.17123	1657.21414	-63.52053	122.15816	1710.47480	-95.11879	98.96122	1491.03614	68.09302	347.70395	1626.20611	-101.78458	149.23713	1656.28435	-114.54104	642.39556	1679.93947	-21.37372	948.70522	1367.12870	18.25054	122.48000	1605.03568	54.49852	653.14085	1549.52395	-43.45724	987.88007	1516.88775	-31.82335	702.32672	1709.23976	-190.66511	474.73852	1512.74820	135.94846	471.89673	1712.49618	-187.92520	268.91507	1439.61852	128.69224	234.96578	
524	5.230	1552.59229	-57.85231	794.40997	1545.62635	-98.61924	692.30407	1556.01539	16.22399	371.96471	1398.98989	58.63318	83.71649	1411.70770	-8.19744	105.64535	1450.69375	26.60720	72.81588	1787.06533	-57.35368	419.58720	1753.90950	-109.38008	370.31189	1694.39024	-129.11825	111.09127	1679.98824	-60.80944	117.56483	1734.97311	-90.67715	96.29672	1497.44409	69.10627	347.08290	1649.26794	-100.08717	143.52384	1667.53409	-112.89830	640.64208	1690.33839	-22.38627	946.82707	1369.19026	18.93676	124.40106	1614.63123	55.64457	652.44881	1559.88454	-44.83901	986.39660	1526.80320	-32.02777	699.94016	1723.58405	-186.03224	473.21085	1520.49994	137.01388	471.04631	1733.44473	-183.35546	266.61849	1443.63091	129.51226	235.21081	
525	5.240	1562.49870	-58.35187	792.53069	1556.42689	-98.48422	689.36353	1564.25136	17.58964	369.96873	1400.47397	59.08645	85.10191	1413.75169	-7.59299	106.82296	1451.85189	27.09139	72.96792	1797.83008	-50.60221	418.27563	1767.52741	-103.81629	368.59074	1717.81313	-126.19531	106.93785	1700.78062	-58.50249	112.87616	1757.41240	-86.49285	93.42860	1504.88833	69.97596	346.08592	1670.64450	-98.85531	137.85313	1679.04148	-111.24380	638.84751	1700.81065	-23.48729	944.93056	1371.72882	19.48062	126.58071	1624.57950	56.81352	651.50049	1570.27629	-46.36421	984.74596	1537.03464	-32.08843	697.38489	1737.91772	-181.05295	471.21025	1528.93367	137.98736	469.84394	1753.45083	-178.68036	264.04002	1448.45464	130.16785	235.36650	
526	5.250	1572.69190	-58.71593	790.49205	1567.49698	-98.21817	686.49270	1573.61811	18.88493	367.60629	1402.38599	59.41869	86.72581	1416.23745	-7.13017	108.11166	1453.28673	27.41508	73.15327	1807.86493	-43.55521	416.04362	1780.40721	-98.16134	366.23720	1739.06004	-123.64527	102.80419	1719.33250	-56.62924	108.21244	1777.49992	-82.66358	90.44011	1513.46499	70.69971	344.65946	1690.03841	-98.08273	132.37572	1690.77106	-109.59802	637.06933	1711.34491	-24.65048	943.04552	1374.87766	19.90298	129.03776	1634.85565	57.99082	650.27133	1580.68666	-48.00544	982.95086	1547.55553	-31.99034	694.70158	1752.18776	-175.84657	468.81924	1538.07621	138.84234	468.26295	1772.29356	-173.98697	261.25348	1454.23206	130.66720	235.40167	
527	5.260	1583.15845	-58.90081	788.33260	1578.79530	-97.81455	683.77987	1584.17803	20.10590	364.86007	1404.86623	59.64767	88.60296	1419.27350	-6.79438	109.52688	1455.09829	27.57899	73.38373	1817.25630	-36.44305	413.05451	1792.55540	-92.58285	363.37991	1757.83853	-121.51595	98.79909	1735.45520	-55.20623	103.71353	1795.01248	-79.28255	87.43213	1523.24259	71.27941	342.76959	1707.20838	-97.74560	127.25226	1702.67268	-107.99150	635.37320	1721.92476	-25.84380	941.20511	1378.77786	20.23314	131.78096	1645.42696	59.15340	648.74974	1591.10027	-49.72728	981.04369	1558.32761	-31.72308	691.94316	1766.30576	-170.57457	466.14360	1547.94419	139.55268	466.29362	1789.76086	-169.39143	258.34462	1461.09571	131.02589	235.28895	
